<svg width="134" height="202" viewBox="0 0 134 202" fill="none" xmlns="http://www.w3.org/2000/svg">
<path d="M2.278 94L5.494 45.09H13.534L10.787 77.786C10.7423 78.4113 10.653 79.3047 10.519 80.466C10.4297 81.5827 10.2957 82.7663 10.117 84.017C9.983 85.223 9.849 86.3173 9.715 87.3C9.983 86.3173 10.251 85.223 10.519 84.017C10.8317 82.7663 11.122 81.5827 11.39 80.466C11.7027 79.3047 11.9483 78.4113 12.127 77.786L20.971 45.09H28.81L27.068 77.786C27.0233 78.4113 26.9787 79.3047 26.934 80.466C26.8893 81.5827 26.8447 82.7663 26.8 84.017C26.7553 85.223 26.7107 86.3173 26.666 87.3C26.8447 86.3173 27.0457 85.223 27.269 84.017C27.4923 82.7663 27.7157 81.5827 27.939 80.466C28.207 79.3047 28.408 78.4113 28.542 77.786L36.046 45.09H44.354L31.691 94H21.239L23.048 61.505C23.0927 60.7457 23.1597 59.763 23.249 58.557C23.3383 57.3063 23.4277 56.011 23.517 54.671C23.651 53.331 23.7627 52.1473 23.852 51.12C23.6287 52.1473 23.3607 53.331 23.048 54.671C22.78 56.011 22.512 57.3063 22.244 58.557C21.976 59.763 21.7303 60.7457 21.507 61.505L12.797 94H2.278ZM63.5568 94.67C60.2962 94.67 57.5492 94.067 55.3158 92.861C53.1272 91.6103 51.5415 89.8907 50.5588 87.702C49.6208 85.4687 49.3752 82.878 49.8218 79.93L53.1048 59.16C53.5962 56.212 54.6682 53.6437 56.3208 51.455C57.9735 49.2217 60.0952 47.502 62.6858 46.296C65.3212 45.0453 68.2692 44.42 71.5298 44.42C74.8352 44.42 77.5822 45.0453 79.7708 46.296C82.0042 47.502 83.5898 49.2217 84.5278 51.455C85.5105 53.6437 85.7562 56.212 85.2648 59.16L81.9818 79.93C81.5352 82.878 80.4632 85.4687 78.7658 87.702C77.1132 89.8907 74.9915 91.6103 72.4008 92.861C69.8102 94.067 66.8622 94.67 63.5568 94.67ZM64.9638 85.96C68.9838 85.96 71.3065 83.95 71.9318 79.93L75.2148 59.16C75.8402 55.14 74.1652 53.13 70.1898 53.13C66.1252 53.13 63.7802 55.14 63.1548 59.16L59.8718 79.93C59.2465 83.95 60.9438 85.96 64.9638 85.96ZM1.407 182L9.179 133.09H24.924C30.1053 133.09 34.036 134.43 36.716 137.11C39.396 139.79 40.3563 143.408 39.597 147.964C39.1057 151.225 37.8327 154.128 35.778 156.674C33.768 159.175 31.3113 160.962 28.408 162.034L34.907 182H24.522L19.028 163.508H14.338L11.39 182H1.407ZM15.678 154.798H21.44C23.6733 154.798 25.4823 154.24 26.867 153.123C28.2963 152.006 29.1673 150.443 29.48 148.433C29.8373 146.334 29.48 144.703 28.408 143.542C27.3807 142.381 25.7503 141.8 23.517 141.8H17.755L15.678 154.798ZM47.9458 182L55.7178 133.09H65.7678L62.7528 152.051H67.3088L78.5648 133.09H89.4858L75.2818 157.076L82.1158 182H71.4628L66.3708 161.297H61.2788L57.9958 182H47.9458ZM110.096 182.67C108.041 182.67 106.5 182.067 105.473 180.861C104.445 179.61 104.088 177.958 104.401 175.903C104.758 173.804 105.629 172.151 107.014 170.945C108.443 169.739 110.185 169.136 112.24 169.136C114.339 169.136 115.902 169.739 116.93 170.945C117.957 172.151 118.292 173.804 117.935 175.903C117.622 177.958 116.751 179.61 115.322 180.861C113.937 182.067 112.195 182.67 110.096 182.67Z" fill="#003B73"/>
<path d="M3.506 23L6.174 6.21H9.187L9.992 11.592C10.084 12.1133 10.153 12.604 10.199 13.064C10.245 13.5087 10.2833 13.8537 10.314 14.099C10.3907 13.8537 10.521 13.501 10.705 13.041C10.889 12.581 11.1037 12.0903 11.349 11.569L13.833 6.21H16.938L14.27 23H11.924L12.821 17.342C12.9283 16.606 13.074 15.801 13.258 14.927C13.442 14.0377 13.6413 13.1483 13.856 12.259C14.0707 11.3543 14.2777 10.4957 14.477 9.683C14.6763 8.87033 14.8603 8.15733 15.029 7.544L11.28 15.709H8.865L7.623 7.544C7.60767 8.142 7.577 8.83967 7.531 9.637C7.485 10.419 7.42367 11.2547 7.347 12.144C7.28567 13.0333 7.20133 13.9303 7.094 14.835C7.002 15.7243 6.89467 16.56 6.772 17.342L5.875 23H3.506ZM24.818 23.23C23.254 23.23 22.0887 22.793 21.322 21.919C20.5553 21.0297 20.2947 19.8337 20.54 18.331L21.046 15.019C21.2913 13.5163 21.9353 12.328 22.978 11.454C24.036 10.5647 25.347 10.12 26.911 10.12C28.475 10.12 29.6403 10.557 30.407 11.431C31.1737 12.305 31.442 13.4933 31.212 14.996L30.683 18.331C30.4377 19.8337 29.786 21.0297 28.728 21.919C27.6853 22.793 26.382 23.23 24.818 23.23ZM25.163 21.045C25.991 21.045 26.6657 20.815 27.187 20.355C27.7083 19.895 28.0457 19.2203 28.199 18.331L28.705 15.019C28.843 14.1297 28.728 13.455 28.36 12.995C27.992 12.535 27.394 12.305 26.566 12.305C25.738 12.305 25.0633 12.535 24.542 12.995C24.0207 13.455 23.6833 14.1297 23.53 15.019L23.024 18.331C22.886 19.2203 23.001 19.895 23.369 20.355C23.737 20.815 24.335 21.045 25.163 21.045ZM36.286 23L38.287 10.35H40.679L40.288 12.742C40.9627 10.994 42.243 10.12 44.129 10.12C45.4784 10.12 46.475 10.5417 47.119 11.385C47.7784 12.213 47.993 13.3553 47.763 14.812L47.625 15.663H45.072L45.187 15.019C45.325 14.1143 45.21 13.4243 44.842 12.949C44.474 12.4583 43.8837 12.213 43.071 12.213C42.2584 12.213 41.5837 12.4583 41.047 12.949C40.5104 13.4397 40.173 14.1297 40.035 15.019L38.77 23H36.286ZM56.77 23.23C55.2214 23.23 54.0637 22.7853 53.297 21.896C52.5304 20.9913 52.262 19.803 52.492 18.331L52.998 15.019C53.1667 14.0377 53.5117 13.179 54.033 12.443C54.5697 11.707 55.252 11.1397 56.08 10.741C56.908 10.327 57.8357 10.12 58.863 10.12C60.4117 10.12 61.5694 10.5723 62.336 11.477C63.118 12.3663 63.3864 13.547 63.141 15.019L62.796 17.273H55.068L54.884 18.331C54.5774 20.2477 55.321 21.206 57.115 21.206C58.5564 21.206 59.4764 20.7077 59.875 19.711H62.336C61.9987 20.7843 61.324 21.643 60.312 22.287C59.3 22.9157 58.1194 23.23 56.77 23.23ZM55.413 15.019L55.321 15.594L60.657 15.571L60.749 14.996C60.887 14.0607 60.772 13.3477 60.404 12.857C60.0514 12.351 59.438 12.098 58.564 12.098C57.6747 12.098 56.9617 12.351 56.425 12.857C55.9037 13.363 55.5664 14.0837 55.413 15.019Z" fill="#60A3D9"/>
</svg>
