<svg width="34" height="33" viewBox="0 0 34 33" fill="none" xmlns="http://www.w3.org/2000/svg">
<path d="M30.7036 1.02022L3.02066 1.00071C1.91609 0.999927 1.02003 1.89472 1.01925 2.99929L1.00072 29.287C0.999946 30.3916 1.89475 31.2876 2.99931 31.2884L30.6823 31.3079C31.7868 31.3087 32.6829 30.4139 32.6837 29.3093L32.7022 3.02163C32.703 1.91706 31.8082 1.021 30.7036 1.02022Z" fill="#F6FBFF" stroke="#003B73" stroke-width="2"/>
<path d="M10.3047 21.1562C9.67448 21.1562 9.0625 21.1042 8.46875 21C7.875 20.8906 7.34375 20.7396 6.875 20.5469L7.15625 18.4375C8.33333 18.9375 9.42448 19.1875 10.4297 19.1875C10.987 19.1875 11.4141 19.0885 11.7109 18.8906C12.0078 18.6927 12.1562 18.4089 12.1562 18.0391C12.1562 17.5547 11.8516 17.1693 11.2422 16.8828L9.64844 16.1094C8.86198 15.724 8.2526 15.2474 7.82031 14.6797C7.38802 14.112 7.17188 13.4844 7.17188 12.7969C7.17188 11.8281 7.49219 11.0781 8.13281 10.5469C8.77344 10.0156 9.67969 9.75 10.8516 9.75C12.2526 9.75 13.4427 10.2161 14.4219 11.1484L13 12.7812C12.2552 12.0677 11.5417 11.7109 10.8594 11.7109C10.401 11.7109 10.0443 11.8099 9.78906 12.0078C9.53385 12.2005 9.40625 12.4818 9.40625 12.8516C9.40625 13.3464 9.7526 13.776 10.4453 14.1406L11.9453 14.9141C12.7266 15.3203 13.3281 15.7943 13.75 16.3359C14.1771 16.8776 14.3906 17.4583 14.3906 18.0781C14.3906 19.0625 14.0365 19.8229 13.3281 20.3594C12.6198 20.8906 11.612 21.1562 10.3047 21.1562ZM16.4141 21V9.90625H18.4766V15.3281C19.2734 15.1771 19.9297 14.8333 20.4453 14.2969C20.9609 13.7552 21.3411 13.099 21.5859 12.3281C21.8359 11.5521 21.9609 10.7448 21.9609 9.90625H24.0547C24.0547 11.0104 23.8698 12.0677 23.5 13.0781C23.1354 14.0833 22.6068 14.9401 21.9141 15.6484L24.5859 21H22.0391L20.1797 16.8984C19.6484 17.1484 19.0807 17.3177 18.4766 17.4062V21H16.4141Z" fill="#003B73"/>
</svg>
